<?xml version="1.0" encoding="utf-8"?>
<!-- Generator: Adobe Illustrator 22.1.0, SVG Export Plug-In . SVG Version: 6.00 Build 0)  -->
<svg version="1.1" id="圖層_1" xmlns="http://www.w3.org/2000/svg" xmlns:xlink="http://www.w3.org/1999/xlink" x="0px" y="0px"
	 viewBox="0 0 1366 768" style="enable-background:new 0 0 1366 768;" xml:space="preserve">
<style type="text/css">
	.st0{fill:none;}
	.st1{fill:#040000;}
	.st2{fill:#FFFFFF;}
</style>
<line class="st0" x1="0" y1="3" x2="1366" y2="768"/>
<line class="st0" x1="-0.5" y1="768.5" x2="1365.5" y2="2.5"/>
<polygon class="st1" points="669.1,395.8 671.3,397.9 673.6,399.6 676.1,401.1 678.8,402.2 681.7,402.9 684.6,403.1 687.4,402.8 
	690.3,402.2 693,401.2 695.7,400 698.4,398.5 700.9,396.9 702,396 702.9,395 703.5,393.9 703.7,392.7 703.9,391.3 703.7,389.8 
	703.2,388.5 702.8,387.2 702,386.1 701.1,384.8 699,382.6 696.3,380.8 695,380.1 693.8,379.4 692.5,379.1 691.3,378.8 689.9,379 
	688.7,379.3 687.4,379.9 686.4,380.8 685.7,381.6 685.3,382.9 685.1,384.2 685,385.7 684.6,389 684.4,390.7 683.9,392.4 
	683.1,393.9 682.1,395 680.8,396 679.4,396.5 677.9,396.8 676.2,396.8 674.5,396.8 672.7,396.6 669.1,395.8 "/>
<polygon class="st1" points="727.6,322.9 702.8,358.6 696.5,367.6 693.4,372.1 691.9,374.3 691,375.4 690.9,375.7 690.4,375.7 
	688.6,376 686.9,376.6 685.2,377.6 683.9,379 683.3,379.7 682.8,380.5 682.2,382.3 681.9,383.9 681.7,387 681.6,388.5 681.3,389.8 
	681,391 680.6,391.9 680.1,392.5 679.6,392.9 678.9,393.3 678.1,393.5 677,393.6 675.8,393.6 674.3,393.5 672.7,393.4 669.5,392.7 
	667.6,392.3 666.8,392.1 666.3,391.9 665.8,391.8 665.1,391.9 664.4,392.2 663.9,392.8 663.6,393.4 663.5,394.1 663.6,394.7 
	664,395.4 664.4,395.7 668.6,399.8 671,401.7 673.6,403.4 676.5,404.8 679.5,405.8 682.7,406.3 684.4,406.4 685.9,406.3 
	689.1,405.8 692,405 694.8,403.9 697.6,402.7 700.2,401.2 703,399.4 704.2,398.3 705.4,396.9 706.4,395.2 706.9,393.4 707,391.6 
	707,390.7 706.9,390.2 706.9,390.1 708.5,388 714.9,379.6 740.7,346 743.9,341.9 744.7,340.8 744.9,340.5 745,340.8 745.3,341 
	745.9,342.1 748.6,346.8 750.9,351.8 752.7,356.8 754.1,362.1 755.2,367.5 755.9,372.8 756.3,378.2 756.3,383.6 755.9,389 
	755.2,394.4 754.1,399.8 752.8,405 751.2,410.2 749.4,415.3 747.2,420.3 744.9,425.2 742.5,430.1 739.7,434.8 736.9,439.3 
	733.9,443.8 730.7,448.1 727.4,452.3 723.7,456.2 720.1,460.1 716.1,463.8 712,467.2 707.7,470.5 703.2,473.6 698.6,476.5 
	693.9,479.1 689.1,481.3 684,483.2 678.9,484.7 673.8,485.9 668.6,486.7 663.4,486.9 658.1,486.8 652.9,486.2 647.5,485.1 
	642.3,483.5 637.1,481.5 632,479 629.5,477.5 627.1,476 624.8,474.3 622.7,472.3 620.8,470.4 619.3,468.3 618.1,466 617.4,463.4 
	617.1,460.8 617.4,458.2 617.9,455.5 618.8,452.8 619.9,450.3 621.4,448.1 622.9,446 624.8,444.1 626.7,442.4 628.8,440.6 
	633.2,437.6 637.8,434.6 642.3,431.6 644.5,429.9 646.6,428.2 648.5,426.3 650.3,424.2 651.9,422 653.2,419.6 654.3,417.1 
	655.3,414.5 655.9,411.8 656.4,409.1 656.5,406.3 656.4,403.6 656,401 655.3,398.4 654.3,396.1 653.1,393.8 651.8,391.6 
	650.2,389.4 648.5,387.3 646.6,385.3 642.6,381.4 638.3,377.6 637.1,376.6 635.8,375.9 633,374.3 630.3,373 627.8,372 626.5,371.6 
	625.2,371.4 624,371.4 622.9,371.5 621.9,371.7 620.8,372.2 619.7,372.8 618.7,373.7 614.7,377.5 612.5,379.2 611.4,379.8 
	610.1,380.3 608.9,380.7 607.4,380.9 604.8,380.9 602,380.5 599.3,379.7 596.9,378.5 594.7,377 592.7,375.2 591,373.1 589.4,370.9 
	588.2,368.6 587.1,366.1 586.4,363.5 585.6,360.8 585.3,358.1 585,355.5 584.9,352.6 584.9,349.9 585.1,347.3 585.5,344.6 
	586,341.9 586.7,339.3 587.6,336.8 588.7,334.3 589.9,332 591.3,329.8 592.9,327.5 594.6,325.3 596.4,323.4 598.4,321.4 
	600.3,319.7 602.5,318 604.6,316.4 609.1,313.5 613.9,311 618.8,309.1 623.9,307.5 629.1,306.4 634.3,305.6 639.7,305.3 645,305 
	655.6,304.9 666.3,305 671.5,305.1 676.8,305.5 682.1,306 687.4,306.7 692.7,307.7 697.9,309.1 703.1,310.5 708.3,312.5 
	713.4,314.7 718.3,317.1 723.1,319.8 727.6,322.9 "/>
<polygon class="st2" points="624.9,348.5 624.6,346.3 623.9,344.2 622.7,342.2 621.1,340.6 619.3,339.5 617.2,338.8 615.1,338.6 
	612.8,338.8 610.7,339.5 608.9,340.6 607.3,342.2 606.1,344.2 605.4,346.3 605.1,348.5 605.4,350.7 606.1,352.9 607.3,354.7 
	608.9,356.3 610.7,357.5 612.8,358.3 615.1,358.5 617.2,358.3 619.3,357.5 621.1,356.3 622.7,354.7 623.9,352.9 624.6,350.7 
	624.9,348.5 "/>
<polygon class="st2" points="660.6,326.6 660.2,324.4 659.5,322.2 658.4,320.3 656.9,318.7 654.9,317.5 652.9,316.8 650.7,316.5 
	648.5,316.8 646.4,317.5 644.5,318.7 642.9,320.3 641.8,322.2 641.1,324.4 640.9,326.6 641.1,328.8 641.8,330.9 642.9,332.8 
	644.5,334.4 646.4,335.5 648.5,336.2 650.7,336.5 652.9,336.2 654.9,335.5 656.9,334.4 658.4,332.8 659.5,330.9 660.2,328.8 
	660.6,326.6 "/>
<polygon class="st2" points="702.6,326.2 702.4,324 701.7,321.9 700.5,320.1 699,318.5 697.1,317.3 695,316.5 692.8,316.3 
	690.7,316.5 688.5,317.3 686.7,318.5 685.1,320.1 683.9,321.9 683.1,324 682.9,326.2 683.1,328.5 683.9,330.6 685.1,332.4 
	686.7,334 688.5,335.3 690.7,336 692.8,336.2 695,336 697.1,335.3 699,334 700.5,332.4 701.7,330.6 702.4,328.5 702.6,326.2 "/>
<polygon class="st2" points="679.1,456.3 678.9,453.7 678.3,451.3 677.2,449.1 675.8,447 674.1,445.3 672,443.8 669.7,442.7 
	667.4,442.1 664.9,441.9 662.4,442.1 660,442.7 657.8,443.8 655.8,445.3 653.9,447 652.6,449.1 651.5,451.3 650.9,453.7 
	650.7,456.3 650.9,458.8 651.5,461.2 652.6,463.4 653.9,465.5 655.8,467.3 657.8,468.7 660,469.8 662.4,470.4 664.9,470.6 
	667.4,470.4 669.7,469.8 672,468.7 674.1,467.3 675.8,465.5 677.2,463.4 678.3,461.2 678.9,458.8 679.1,456.3 "/>
<polygon class="st1" points="703,364.4 695.9,374.2 708.1,383.2 715.5,373.7 703,364.4 "/>
<polyline class="st1" points="771.3,284.7 772.9,286.2 774.1,288 775,290.1 775.2,292.3 775.1,294.4 774.4,296.5 773.3,298.4 
	719.2,368.7 706.6,359.4 756.5,286.1 758,284.3 759.7,283.1 761.8,282.3 763.9,281.9 766,282 768.2,282.6 770,283.7 770.7,284.2 "/>
</svg>
