<?xml version="1.0" encoding="utf-8"?>
<!-- Generator: Adobe Illustrator 22.1.0, SVG Export Plug-In . SVG Version: 6.00 Build 0)  -->
<svg version="1.1" id="圖層_1" xmlns="http://www.w3.org/2000/svg" xmlns:xlink="http://www.w3.org/1999/xlink" x="0px" y="0px"
	 viewBox="0 0 1366 768" style="enable-background:new 0 0 1366 768;" xml:space="preserve">
<style type="text/css">
	.st0{fill:none;}
	.st1{fill:#040000;}
</style>
<line class="st0" x1="0" y1="3" x2="1366" y2="768"/>
<line class="st0" x1="-0.5" y1="768.5" x2="1365.5" y2="2.5"/>
<polygon class="st1" points="680.8,312.5 600.3,356.9 598.7,357.4 597.1,357.4 595.5,357 594.2,356 593.1,354.7 593.1,354.7 
	592.6,353.1 592.5,351.5 593,349.9 594,348.4 595.3,347.5 680.8,300.3 682.5,299.7 684.2,299.7 685.9,300.3 771.4,347.5 
	772.7,348.4 773.6,349.9 774.1,351.5 774.1,353.1 773.5,354.7 773.5,354.7 772.5,356 771.2,357 769.6,357.4 767.9,357.4 
	766.3,356.9 685.9,312.5 684.2,311.8 682.5,311.8 "/>
<polygon class="st1" points="649.1,413.7 648.8,410.6 648.1,407.7 646.9,404.9 645.3,402.3 643.4,400 641.1,398 638.5,396.4 
	635.7,395.2 632.8,394.6 629.8,394.3 626.9,394.6 623.9,395.2 621.1,396.4 618.5,398 616.2,400 614.3,402.3 612.7,404.9 
	611.6,407.7 610.9,410.6 610.7,413.7 610.9,416.7 611.6,419.7 612.7,422.5 614.3,425.1 616.2,427.4 618.5,429.4 621.1,430.9 
	623.9,432.2 626.9,432.9 629.8,433.1 632.8,432.9 635.7,432.2 638.5,430.9 641.1,429.4 643.4,427.4 645.3,425.1 646.9,422.5 
	648.1,419.7 648.8,416.7 649.1,413.7 "/>
<polygon class="st1" points="586.8,467.9 586.8,467.9 587,466.3 587.9,464.8 589,463.6 590.4,462.9 592.1,462.6 774.6,462.6 
	776.1,462.9 777.6,463.6 778.8,464.8 779.5,466.3 779.8,467.9 779.8,467.9 779.5,469.6 778.8,471.1 777.6,472.3 776.1,473 
	774.6,473.3 592.1,473.3 590.4,473 589,472.3 587.9,471.1 587,469.6 "/>
<polygon class="st1" points="760.7,429.1 760.5,425.8 759.7,422.5 758.4,419.4 756.7,416.6 754.6,414.1 752,411.8 749.2,410.1 
	746.2,408.8 742.9,408.1 739.7,407.8 669.4,407.8 669.4,448.9 760.7,448.9 "/>
<polygon class="st1" points="658.9,388 658.9,388 660.5,388.2 662,389 663.1,390.2 663.8,391.7 664.2,393.4 664.2,443.6 
	663.8,445.3 663.1,446.7 662,448 660.5,448.7 658.9,448.9 604,448.9 602.3,448.7 600.9,448 599.6,446.7 598.9,445.3 598.7,443.6 
	598.7,443.6 598.9,442 599.6,440.5 600.9,439.3 602.3,438.5 604,438.3 653.5,438.3 653.5,393.4 653.9,391.7 654.6,390.2 655.7,389 
	657.3,388.2 "/>
</svg>
