<?xml version="1.0" encoding="utf-8"?>
<!-- Generator: Adobe Illustrator 22.1.0, SVG Export Plug-In . SVG Version: 6.00 Build 0)  -->
<svg version="1.1" id="圖層_1" xmlns="http://www.w3.org/2000/svg" xmlns:xlink="http://www.w3.org/1999/xlink" x="0px" y="0px"
	 viewBox="0 0 1366 768" style="enable-background:new 0 0 1366 768;" xml:space="preserve">
<style type="text/css">
	.st0{fill:none;}
	.st1{fill:#040000;}
	.st2{fill:#FFFFFF;}
</style>
<line class="st0" x1="0" y1="3" x2="1366" y2="768"/>
<line class="st0" x1="-0.5" y1="768.5" x2="1365.5" y2="2.5"/>
<polygon class="st1" points="599.3,400.6 598.2,401.5 596.9,401.9 595.6,402.2 594.2,401.9 592.9,401.5 591.8,400.6 591.6,400.4 
	590.8,399.3 590.4,397.8 590.4,396.4 590.6,395 590.8,394.4 591,394.2 591,394.1 591.1,394.1 591.2,393.7 592.5,391.4 597.9,382.1 
	608.6,363.3 611.3,358.6 611.7,358.1 612.6,357.1 613.8,356.4 615.3,356 615.9,356 616.2,356 616.8,356 618,356 622.9,356.3 
	632.9,356.7 634.1,356.8 634.7,356.8 634.8,356.8 634.9,356.8 635.2,356.8 635.7,357 636.1,357.4 636.5,357.8 636.7,358.2 
	636.9,358.9 636.7,359.4 636.6,360 636.3,360.5 635.8,361.4 634.7,363.4 632.5,367.3 628.3,375.4 626.2,379.4 626.1,379.7 
	625.8,380 625.5,380.5 625,380.8 624.4,380.9 624.1,380.9 623.7,380.9 621.8,380.9 621,380.9 620.4,380.9 619.7,381 618.3,381.5 
	617.2,382.2 617.1,382.4 617,382.5 616.9,382.7 615.7,383.8 613.4,386.3 608.6,391.1 599.3,400.6 "/>
<polygon class="st1" points="708,296.9 711.6,295.6 715.2,294.5 719,293.5 722.6,292.8 730.3,291.7 734.1,291.3 736.1,291.2 
	736.6,291.1 737.8,291.2 738.9,291.4 739.9,292 740.9,292.8 741.5,293.7 742,294.8 742.2,296.1 742.2,296.7 742.2,296.9 
	742.1,297.4 742.1,298.4 741.9,300.4 741.5,304.3 741,308.1 740.3,311.9 739.6,315.7 738.6,319.4 737.4,323.1 736.8,325 
	736.6,325.3 736.6,325.6 736.4,325.7 736.3,325.6 735.6,324.8 733.9,323.1 708,296.9 "/>
<polygon class="st1" points="627.5,386.2 634,373.3 637.3,367.1 640.9,360.8 644.6,354.7 648.5,348.7 652.7,342.9 657.1,337.3 
	661.7,331.8 666.5,326.5 671.6,321.5 677,316.6 682.5,312 688.3,307.7 694.4,303.8 696,302.8 696.7,302.4 697.1,302.2 697.3,302.1 
	697.4,301.9 697.7,301.9 698.2,301.7 699.2,301.5 700.3,301.3 701.4,301.6 702.5,302.1 703.4,302.7 703.6,302.9 703.7,303 
	703.8,303.2 704.6,303.9 707.5,306.8 718.7,318.2 730,329.7 730.4,330 730.5,330.1 730.5,330.2 730.6,330.2 730.9,330.5 731.1,331 
	731.7,331.9 731.9,333 732.1,334.1 731.8,335.2 731.5,336.3 731.3,336.5 731.3,336.6 731.3,336.7 731.2,336.8 731,337.2 
	730.5,338.1 729.6,339.6 727.7,342.7 723.6,348.7 719.2,354.5 714.5,360 709.5,365.2 704.5,370.2 699.1,375 693.7,379.5 688,383.8 
	682.2,387.9 676.2,391.8 670.1,395.5 663.9,398.9 657.7,402.3 651.3,405.6 649.7,406.4 648.9,406.7 648.5,407 648.2,407.1 
	648.1,407.2 647.6,407.3 646.6,407.6 645.5,407.7 644.4,407.5 643.3,407 642.4,406.4 642.2,406.1 642.1,406 641.7,405.6 
	640.3,404.1 634.4,398.3 628.7,392.5 628.5,392.3 628.4,392.2 628.1,391.9 627.9,391.5 627.3,390.6 627.1,389.5 626.9,388.2 
	627.2,387.1 627.5,386.2 "/>
<polygon class="st1" points="678,418.6 677.6,408.7 677.4,403.7 677.3,401.1 677.3,399.9 677.2,399.6 677.1,399 676.8,398.5 
	676.5,398.2 676,397.8 675.5,397.7 674.9,397.7 674.4,397.8 673.9,398 673,398.5 669.1,400.8 661.2,405.1 657.2,407.2 655.3,408.2 
	654.7,408.4 654.4,408.7 653.9,409 653.6,409.5 653.5,410 653.3,410.6 653.3,411.5 653.3,413.3 653.3,413.8 653.3,414.4 
	653.1,415.9 652.4,417.1 651.9,417.6 651.9,417.7 651.8,417.9 651.2,418.5 649.9,419.6 640.5,429 635.8,433.8 634.6,435 634,435.5 
	633.8,435.7 633.4,436.2 632.7,437.4 632.4,438.8 632.5,440.3 632.9,441.6 633.6,442.8 633.8,443.1 634,443.2 634.1,443.3 
	634.3,443.4 634.8,443.9 636.1,444.5 637.6,444.8 638.9,444.5 640.3,444.1 640.4,444.1 640.6,443.9 641.7,443.2 644,441.8 
	648.7,439.2 657.9,433.6 667.3,428.3 671.9,425.6 674.2,424.2 675.4,423.5 675.5,423.4 676.6,422.5 677.4,421.4 677.9,420.1 
	678,418.6 "/>
<polygon class="st2" points="711.8,333.8 711.7,331.4 711,329.1 709.9,327 708.5,325.3 706.6,323.7 704.6,322.6 702.4,322 
	700.1,321.8 697.7,322 695.5,322.6 693.4,323.7 691.6,325.3 690.2,327 689.1,329.1 688.5,331.4 688.2,333.8 688.5,336.1 
	689.1,338.3 690.2,340.4 691.6,342.2 693.4,343.7 695.5,344.8 697.7,345.5 700.1,345.8 702.4,345.5 704.6,344.8 706.6,343.7 
	708.5,342.2 709.9,340.4 711,338.3 711.7,336.1 711.8,333.8 "/>
<polygon class="st1" points="599.8,437.4 601.9,435.9 604,434.5 606.1,433.4 608,432.5 609.9,432.1 611.7,432.1 613.4,432.4 
	614.1,432.7 614.8,433.2 615.5,433.8 616.3,434.5 616.9,435.5 617.5,436.5 618,437.7 618.1,437.9 618.1,438.1 618.2,438.1 
	618.5,437.7 619.5,436.5 621.6,433.9 623.5,431.2 625.1,428.5 626.7,425.7 627.9,423.1 629.1,420.7 629.8,418.3 630.4,416.1 
	630.6,414.1 630.2,412.1 629.4,410.3 628,408.6 626.4,407.1 624.5,406 622.4,405.1 620.3,404.8 619.1,404.8 617.8,404.9 
	616.6,405.1 615.2,405.6 613.7,406.2 612.2,407 610.5,407.9 608.6,409 606.6,410.4 606.1,410.6 605.9,410.8 605.9,410.9 606.1,411 
	606.6,411.7 607.3,413.3 607.7,415.2 607.8,417.4 607.6,419.7 606.9,422.3 606.1,425.1 604.9,428 603.4,431.1 601.7,434.3 
	599.8,437.4 "/>
<polygon class="st1" points="748.2,434 752.9,426.1 757.4,418 759.3,413.8 761.3,409.7 763,405.4 764.5,401.1 767.4,392.3 
	770.1,383.5 772.5,374.4 774.7,365.3 775.3,363 775.6,361.9 775.6,361.7 775.7,361.6 775.6,361.6 775.2,361.9 771.9,365.2 
	765.4,371.7 758.8,378.1 752.1,384.3 745.2,390.6 741.6,393.5 738,396.3 734.4,399 730.5,401.6 726.6,404 724.7,405.1 724.6,405.3 
	724.4,405.3 724.7,405.3 725,405.3 728,405.3 731,405.6 734,406.5 736.9,407.8 739.6,409.4 741.9,411.4 743.9,413.6 745.6,416 
	747.1,418.8 748.2,421.8 748.8,424.8 749,427.9 748.8,431.1 748.2,434 "/>
<polygon class="st1" points="734,410.4 734.5,410 735.1,409.8 735.8,409.8 736.4,409.9 736.6,410 737.8,410.8 740.3,412.7 
	742.4,415 743.2,416.3 743.5,416.5 743.6,416.6 743.6,416.8 743.8,417.4 743.9,418 743.7,418.7 743.5,419.2 743.1,419.6 
	742.7,419.8 741.6,420.8 737.4,424.5 728.7,431.8 720,439 711.2,446 702.4,452.5 693.4,458.7 688.9,461.6 684.5,464.2 680,466.8 
	675.4,469.3 670.8,471.5 666.2,473.6 661.5,475.4 656.7,477.1 652,478.4 647.3,479.7 642.4,480.7 637.6,481.3 632.6,481.8 
	627.7,481.9 622.7,481.8 617.6,481.4 612.5,480.8 607.3,480 597,478.1 594.5,477.6 593.1,477.3 593,477.3 593.4,477.3 594,477.5 
	599.3,478 609.7,478.9 614.8,479.2 620,479.2 625,479.1 630,478.7 634.9,478 639.8,477 644.5,475.8 649.2,474.3 653.8,472.6 
	658.4,470.6 662.9,468.5 667.4,466.2 671.9,463.6 676.2,460.9 680.6,458.1 684.8,455.1 689.1,451.9 693.3,448.6 701.5,441.6 
	709.8,434.1 717.9,426.4 726,418.5 734,410.4 "/>
</svg>
