<?xml version="1.0" encoding="utf-8"?>
<!-- Generator: Adobe Illustrator 22.1.0, SVG Export Plug-In . SVG Version: 6.00 Build 0)  -->
<svg version="1.1" id="圖層_1" xmlns="http://www.w3.org/2000/svg" xmlns:xlink="http://www.w3.org/1999/xlink" x="0px" y="0px"
	 viewBox="0 0 1366 768" style="enable-background:new 0 0 1366 768;" xml:space="preserve">
<style type="text/css">
	.st0{fill:#040000;}
	.st1{fill:#FFFFFF;stroke:#8D635C;stroke-width:0;stroke-linecap:square;stroke-miterlimit:10;}
	.st2{fill:none;stroke:#20272F;stroke-width:0;stroke-linecap:square;stroke-miterlimit:10;}
	.st3{fill:none;}
</style>
<polygon class="st0" points="681.4,352.3 684.9,330.2 686.6,319.2 687.5,313.7 687.6,313.1 687.7,312.9 687.8,312.4 688.1,311.3 
	688.1,310.2 687.8,309.1 687.3,308.1 686.7,307 685.9,305.9 684.8,304.8 683.6,303.8 682.1,302.8 680.4,302 678.6,301 676.7,300.3 
	674.6,299.4 670.1,298.2 667.7,297.6 665.3,297.1 662.6,296.6 660,296.2 654.2,295.6 648.2,295.4 642.2,295.4 636.2,295.7 
	630.5,296.5 627.9,296.8 625.3,297.3 620.6,298.5 616.2,299.9 614.3,300.7 612.4,301.6 610.7,302.5 609.2,303.4 607.8,304.4 
	606.7,305.5 605.7,306.5 605,307.6 604.5,308.7 604.1,309.8 604.1,310.9 604.3,311.9 604.5,313 604.5,313.1 604.6,313.4 604.7,314 
	605,315.4 608.5,337.3 610.2,348.4 610.7,351.2 610.8,351.8 610.8,352.2 610.8,352.3 610.8,352.4 611,353.1 611.8,354.5 
	612.7,355.6 613.3,356 615.3,357.1 617.3,358 619.5,358.9 621.9,359.7 624.4,360.5 627,361.2 632.5,362.3 638.3,363.1 644.1,363.4 
	649.8,363.3 655.6,362.9 661.3,362.1 664.1,361.5 666.8,360.8 669.3,360.1 671.7,359.3 674,358.4 676.1,357.4 678,356.4 
	678.5,356.2 678.7,356.1 678.9,356 679,356 680.1,355 680.9,353.6 681.4,352.3 "/>
<polygon class="st1" points="683.8,310.8 683.8,310.4 683.6,309.8 683,309.1 682.1,308.1 680.7,307 679,306 676.8,304.9 
	674.4,303.9 671.5,303 668.5,302.1 665.1,301.4 661.5,300.7 657.8,300.3 653.9,299.9 650,299.6 646,299.6 642.2,299.6 638.2,299.9 
	634.4,300.3 630.7,300.7 627.1,301.4 623.8,302.1 620.6,303 617.8,303.9 615.4,304.9 613.2,306 611.4,307 610.1,308.1 609.1,309.1 
	608.6,309.8 608.4,310.4 608.4,310.8 608.4,311.2 608.6,311.8 609.1,312.6 610.1,313.5 611.4,314.6 613.2,315.7 615.3,316.8 
	617.8,317.8 620.6,318.6 623.8,319.5 627.1,320.2 630.7,320.8 634.4,321.3 638.2,321.7 642.2,321.9 646,322 650,321.9 653.9,321.7 
	657.8,321.3 661.5,320.8 665.1,320.2 668.5,319.5 671.5,318.6 674.4,317.8 676.8,316.7 679,315.7 680.7,314.6 682.1,313.5 
	683,312.6 683.6,311.8 683.8,311.2 683.8,310.8 "/>
<polygon class="st0" points="679.5,400.6 679.8,400.9 679.8,401.1 679.7,401.5 679.5,401.7 679.1,402.1 678.4,403 677.7,403.7 
	677.5,403.9 677.4,404.1 677.3,404.1 677.1,404.2 676.8,404.2 675.7,403.8 673.4,403.1 668.6,401.7 663.6,400.6 658.5,399.9 
	653.3,399.4 648.1,399.2 642.9,399.2 637.7,399.4 632.6,400 627.5,400.9 622.5,402 617.8,403.3 613.2,404.9 608.9,406.7 
	604.7,408.8 600.9,411.2 597.3,413.6 594.1,416.2 591.2,418.9 588.6,421.8 586.6,424.7 584.8,427.8 583.3,430.9 582.2,433.9 
	581.6,437.1 581.4,440.3 581.4,443.5 581.8,446.5 582.7,449.7 583.9,452.8 585.5,455.8 587.4,458.9 589.7,461.8 592.4,464.6 
	595.4,467.3 598.8,469.8 602.4,472.2 606.4,474.4 610.7,476.4 615,478.1 619.8,479.6 624.6,480.9 629.6,481.9 634.7,482.6 
	639.9,483.1 645.1,483.3 650.3,483.3 655.5,482.9 660.6,482.3 665.7,481.3 670.5,480.2 675.4,478.7 679.8,477.1 684.2,475.2 
	688.2,473.1 692.1,470.8 695.5,468.3 698.7,465.6 701.5,462.9 703.9,460 706,457.1 707.8,454 709.2,450.9 710.1,447.8 710.6,444.7 
	710.8,441.5 710.7,438.3 710.2,435.1 709.3,432.1 708.1,428.9 706.4,425.8 704.3,422.9 702,420 699.2,417.3 696.1,414.6 
	694.5,413.2 693.5,412.6 693.3,412.4 693.3,412 693.5,411.8 695.2,410.5 696.1,409.9 696.2,409.8 696.3,409.8 696.3,409.7 
	696.7,409.7 696.8,409.8 696.9,409.8 698.6,411.2 701.8,413.8 704.7,416.7 707.3,419.8 709.6,423.2 711.6,426.6 713.1,430.3 
	714.2,433.9 714.8,437.7 715.1,441.6 714.8,445.4 714.1,449.2 712.9,452.9 711.2,456.6 709.2,460 706.8,463.2 704.1,466.4 
	701.2,469.2 697.9,471.9 694.5,474.2 690.7,476.5 686.6,478.7 682.1,480.7 677.4,482.5 672.3,484.1 667.1,485.3 661.7,486.4 
	656.1,487 650.4,487.5 644.7,487.5 639,487.3 633.4,486.8 628,485.9 622.7,484.8 617.7,483.5 613,481.9 608.5,480.1 604.4,478.1 
	600.5,476 596.7,473.7 593.2,471 590,468.2 586.9,465.1 584.3,461.8 582,458.4 580.1,454.9 578.7,451.1 577.7,447.3 577.1,443.5 
	577.1,439.7 577.5,435.9 578.3,432.2 579.7,428.7 581.4,425.1 583.3,421.9 585.7,418.7 588.3,415.9 591.2,413.1 594.4,410.4 
	598.1,407.9 602.1,405.5 606.4,403.2 611,401.2 616,399.4 621.2,397.9 626.7,396.7 632.2,395.7 637.8,395.1 643.5,394.9 
	649.1,394.9 654.6,395.1 660.1,395.7 665.3,396.6 670.3,397.8 675,399 679.5,400.6 "/>
<polygon class="st0" points="716.5,384.3 715.9,383.2 715.6,382.6 715.4,382.4 715.3,382.3 714.6,381.4 713.8,380.6 712.8,379.7 
	712.3,379.5 712.1,379.3 711.1,379 710.2,378.7 709.3,378.6 708.4,378.8 707.5,379.1 706.6,379.6 704.9,380.8 703.2,382.1 
	699.9,384.8 693.8,390.1 690.9,392.8 688,395.5 685.3,398.4 682.5,401.5 679.7,404.5 676.8,407.5 675.2,408.7 673.7,409.9 672,411 
	670.1,411.9 668.2,412.7 666.1,413.2 661.9,414.2 657.8,415.1 653.8,416.3 649.9,417.6 646.3,419.2 642.5,420.8 638.9,422.7 
	637.1,423.8 635.5,424.9 633.9,426.2 632.5,427.6 631.1,429.1 629.9,430.7 627.9,434.3 626.1,438 624.6,441.8 624,443.7 
	623.6,445.8 623.4,447.8 623.4,449.8 623.6,451.8 624.4,453.8 625.2,455.6 626.2,457.4 626.7,458.3 627.5,458.9 629.2,460.1 
	630.9,461.2 632.6,462.1 634.5,462.7 636.6,462.9 638.5,462.9 640.6,462.8 644.7,462.1 648.5,461 652.3,459.5 655.9,457.7 
	657.5,456.6 659.2,455.3 660.7,454 662,452.5 664.5,449.2 666.8,445.8 670.9,438.8 672.8,435.1 674.4,431.4 676,427.4 677.7,423.6 
	678.7,421.9 680,420.3 681.3,418.7 682.7,417.3 685.9,414.6 689.2,412.1 695.8,407.4 702.1,402.5 708.2,397.2 711.2,394.4 
	714.5,391.4 715.8,389.9 716.4,389 716.8,388.1 716.9,387.3 716.9,386.3 716.8,385.3 716.5,384.3 "/>
<line class="st2" x1="624.7" y1="459.1" x2="625.2" y2="459.7"/>
<polygon class="st1" points="709.4,382.9 709.3,383 708.8,383.2 708.2,383.6 707.6,384.1 704.3,386.7 701.3,389.2 698.2,391.7 
	692.7,396.8 690.1,399.4 687.5,402.3 684.8,405.3 681.9,408.5 678.7,411.4 676.9,412.9 675.1,414.1 673.1,415.3 670.9,416.3 
	668.6,417 666.3,417.6 662,418.5 660.1,419 658.2,419.4 654.6,420.5 651.1,421.8 644,424.9 640.7,426.6 639.3,427.4 637.9,428.4 
	636.7,429.4 635.6,430.5 634.5,431.8 633.4,433.2 631.6,436.2 629.9,439.4 628.7,442.7 627.9,446.2 627.6,447.8 627.5,449.1 
	627.8,450.4 628.1,451.7 628.7,453.1 629.6,454.7 629.7,455.1 630.1,455.5 630.8,456.1 632.2,457.1 633.4,457.8 634.7,458.3 
	635.9,458.5 637.4,458.6 639,458.6 640.7,458.5 644.2,457.8 647.6,456.8 650.9,455.5 654,453.9 655.4,453 656.6,452 657.8,450.9 
	658.9,449.7 661.1,446.8 663.1,443.6 665.2,440.2 667.1,436.9 668.8,433.6 670.3,430.1 671.8,426.2 672.7,424.3 673.8,422.2 
	674.9,420.1 676.3,418.1 677.8,416.4 679.2,414.7 682.6,411.8 686,409.2 689.4,406.9 692.6,404.5 695.6,402.3 701.4,397.4 
	704.3,395 707.3,392.3 710.4,389.5 711.7,388.1 712.2,387.5 712.5,387.2 712.7,386.9 712.8,386.7 712.7,386.4 712.5,385.8 
	712.5,385.7 712.1,385.1 711,384 710.5,383.5 710.4,383.2 710.2,383.2 710,383.1 709.6,383 709.4,382.9 "/>
<polygon class="st0" points="760.3,309.6 760.4,323.5 760.4,326.9 760.4,327.4 760.5,327.4 760.6,327.4 761,327.6 762.7,327.9 
	764.3,328.4 765.8,329 767.2,330 768.5,331.1 769.7,332.5 770.9,333.6 771.7,333.9 772.4,334 773.2,334 774.1,333.8 774.8,333.6 
	775.5,333.1 776.7,332 777.7,330.6 778.6,329.1 779.3,327.7 779.4,327.2 779.6,326.5 779.6,325.7 779.8,325 779.8,323.9 
	779.9,322.5 779.9,320.8 780,318.7 780,316.5 779.9,314.8 779.8,313.4 779.8,312.3 779.6,311.4 779.6,310.7 779.5,310.2 
	779.4,309.8 779.3,309.3 778.9,308.6 778.2,307.1 777.3,305.8 776.3,304.4 774.9,303.4 774.1,303.1 773.2,303 772.4,302.8 
	771.7,303.1 770.9,303.4 770.3,303.9 769.1,305.2 767.9,306.4 766.6,307.5 765.1,308.2 763.5,308.8 761.8,309.3 760.3,309.6 "/>
<polygon class="st0" points="734.3,327.4 734.6,313.5 734.6,309.9 734.6,309.6 734.5,309.6 734.3,309.6 734,309.4 732.3,309.2 
	730.7,308.6 729.1,308 727.7,307.1 726.5,306 725.3,304.7 724,303.6 723.3,303.1 722.6,302.8 721.7,302.8 720.9,303.1 720.2,303.3 
	719.4,303.8 718.1,304.9 717.1,306.3 716.3,307.6 715.6,309.2 715.4,309.6 715.3,310.2 715.2,310.7 715.1,311.3 715.1,312.1 
	715,313.2 715,314.6 714.8,316.4 714.8,320.6 715,322.3 715,323.8 715.1,324.9 715.1,325.7 715.2,326.3 715.3,326.8 715.4,327.4 
	715.8,328.2 716.5,329.6 717.4,331.1 718.5,332.3 719.8,333.4 720.5,333.8 721.4,334 722.2,334 723,334 723.7,333.7 724.3,333.2 
	725.5,332 726.7,330.6 728,329.6 729.5,328.8 731.1,328.2 732.8,327.7 734.3,327.4 "/>
<polygon class="st0" points="742.3,309.8 742.5,326.7 742.5,326.9 742.6,327.1 742.8,327.1 743.6,327.1 744.8,327.1 747.3,327.1 
	750,327.1 751.2,327.1 751.9,327.1 752.2,327.1 752.3,327.1 752.3,326.8 752.5,309.9 752.5,309.8 752.4,309.8 752.3,309.8 
	751.9,309.8 751.3,309.8 750,309.8 747.4,309.8 742.3,309.8 "/>
<polygon class="st0" points="737.9,292.9 738.9,292.9 739.6,293.2 739.9,293.5 740,294 742.1,493.8 742,494.4 741.6,494.8 
	741,494.9 735.8,494.9 735.3,494.8 735,494.4 734.7,493.8 736.9,294 737,293.5 737.4,293.2 "/>
<polygon class="st0" points="755.8,292.9 756.9,292.9 757.5,293.2 757.9,293.5 758,294 760.1,493.8 760,494.4 759.6,494.8 
	759,494.9 753.8,494.9 753.3,494.8 752.9,494.4 752.7,493.8 754.9,294 755,293.5 755.4,293.2 "/>
<polygon class="st0" points="674.6,360.4 671.2,361.7 667.6,362.8 663.7,363.8 659.7,364.5 655.5,365 651.3,365.4 647,365.5 
	642.7,365.5 638.4,365.3 634.2,364.8 630.1,364 626.2,363.2 622.4,362.2 618.9,361 618.1,360.6 617.6,360.5 617.5,360.5 
	617.3,360.7 617.1,361.1 616.7,362.2 616.6,363.3 616.7,364.3 617,365.3 617.5,366.2 618.2,367.1 618.9,367.8 619.9,368.3 
	620.1,368.4 620.4,368.4 620.7,368.6 621.5,368.9 624.8,369.9 628.5,370.8 632.5,371.4 636.6,372 640.8,372.4 645.2,372.5 
	649.6,372.4 653.9,372.1 658,371.6 662,371 665.8,370.3 669.3,369.3 671,368.8 671.7,368.6 672,368.4 672.1,368.4 673.1,367.9 
	673.9,367.2 674.6,366.5 675.1,365.5 675.5,364.5 675.6,363.4 675.5,362.3 675.1,361.3 674.6,360.4 "/>
<line class="st3" x1="0" y1="3" x2="1366" y2="768"/>
<line class="st3" x1="-0.5" y1="768.5" x2="1365.5" y2="2.5"/>
</svg>
